<svg width="18" height="18" viewBox="0 0 18 18" fill="none" xmlns="http://www.w3.org/2000/svg">
<path fill-rule="evenodd" clip-rule="evenodd" d="M11.3171 1.14276C11.8418 0.892046 12.5088 1.18181 12.7131 1.72674C12.9738 2.42205 13.4009 3.29883 14.0523 3.95102C14.7038 4.6032 15.5796 5.03079 16.2741 5.29179C16.8185 5.49633 17.1079 6.16401 16.8575 6.6893C16.5199 7.3973 16.1542 8.32126 16.1542 9.00114C16.1542 9.71371 16.5559 10.6944 16.9059 11.4136C17.1461 11.9071 16.9079 12.5315 16.4056 12.7518C15.6931 13.0643 14.7457 13.5676 14.0523 14.2617C13.4224 14.8923 13.0023 15.6804 12.7395 16.3113C12.5186 16.8416 11.8586 17.1195 11.3412 16.8711C10.631 16.53 9.69473 16.1555 9.00787 16.1555C8.29818 16.1555 7.32253 16.5551 6.60485 16.9047C6.10971 17.1459 5.46298 16.9104 5.22198 16.4148C4.90763 15.7683 4.41804 14.9272 3.75322 14.2617C3.07577 13.5835 2.21636 13.0874 1.56597 12.7735C1.08147 12.5397 0.858385 11.9273 1.0951 11.4437C1.44844 10.722 1.86154 9.72373 1.86154 9.00114C1.86154 8.31352 1.48745 7.37622 1.14676 6.66519C0.898568 6.1472 1.17619 5.48644 1.70585 5.26534C2.33608 5.00226 3.12331 4.58163 3.75322 3.95102C4.44652 3.25694 4.94926 2.30847 5.26141 1.59509C5.48144 1.09226 6.1052 0.853821 6.59815 1.09426C7.31651 1.44463 8.2961 1.8468 9.00787 1.8468C9.68699 1.8468 10.6099 1.48068 11.3171 1.14276Z" fill="#368CCC"/>
<path fill-rule="evenodd" clip-rule="evenodd" d="M12.5974 6.23033C12.3668 5.98996 11.9929 5.98996 11.7623 6.23033L7.74693 10.4246L6.21165 8.82425C5.98105 8.58387 5.60717 8.58387 5.37656 8.82425C5.14596 9.06462 5.14596 9.45434 5.37656 9.69472L7.37585 11.7787C7.49954 11.9018 7.81779 12.0742 8.10123 11.7787L12.5974 7.09205C12.828 6.85168 12.828 6.4707 12.5974 6.23033Z" fill="white"/>
</svg>
