<svg width="18" height="18" viewBox="0 0 18 18" fill="none" xmlns="http://www.w3.org/2000/svg">
<path fill-rule="evenodd" clip-rule="evenodd" d="M4 7.16546C4 6.86895 4.24958 6.6283 4.55587 6.6283H5.5093L11.2263 12.4643V13.8961C11.2263 14.6283 10.6704 14.9033 10.1146 14.3661L6.46695 11.2931H4.55587C4.24958 11.2931 4 11.0514 4 10.756V7.16546Z" fill="#B1B6BC"/>
<path d="M4.66279 3.0019C4.56107 3.01969 4.46649 3.06454 4.38969 3.13141C4.31289 3.19828 4.25691 3.28452 4.22804 3.38045C4.19916 3.47637 4.19854 3.57818 4.22625 3.67442C4.25395 3.77067 4.30888 3.85754 4.38486 3.92528L13.6006 12.8309C13.6496 12.8893 13.7109 12.9372 13.7803 12.9713C13.8497 13.0055 13.9258 13.0251 14.0035 13.029C14.0813 13.0329 14.1591 13.021 14.2318 12.994C14.3045 12.967 14.3705 12.9255 14.4256 12.8723C14.4806 12.819 14.5235 12.7552 14.5514 12.6849C14.5793 12.6147 14.5916 12.5395 14.5875 12.4643C14.5834 12.3892 14.563 12.3157 14.5276 12.2486C14.4922 12.1816 14.4427 12.1225 14.3821 12.0751L12.167 9.93506V4.07419C12.167 3.03566 11.0947 3.04635 10.3119 3.6885L7.79111 5.7064L5.16697 3.16949C5.10959 3.11044 5.03914 3.06468 4.96088 3.03566C4.88262 3.00664 4.79858 2.9951 4.71505 3.0019C4.69764 3.00111 4.6802 3.00111 4.66279 3.0019Z" fill="#B1B6BC"/>
</svg>
