<svg width="18" height="18" viewBox="0 0 18 18" fill="none" xmlns="http://www.w3.org/2000/svg">
<path fill-rule="evenodd" clip-rule="evenodd" d="M8.625 2C6.13972 2 4.125 4.01472 4.125 6.5V7.92601C3.45247 8.31505 3 9.04218 3 9.875V13.25C3 14.4926 4.00736 15.5 5.25 15.5H12C13.2426 15.5 14.25 14.4926 14.25 13.25V9.875C14.25 9.04218 13.7975 8.31505 13.125 7.92601V6.5C13.125 4.01472 11.1103 2 8.625 2ZM10.875 7.625V6.5C10.875 5.25736 9.86764 4.25 8.625 4.25C7.38236 4.25 6.375 5.25736 6.375 6.5V7.625H10.875Z" fill="#35C47C"/>
</svg>
